<svg width="20" height="20" viewBox="0 0 20 20" fill="none" xmlns="http://www.w3.org/2000/svg">
<path d="M18.2734 9.67249C18.1051 9.26582 17.7443 9.16832 17.5001 9.14499V6.66666C17.5001 5.74749 16.7526 4.99999 15.8334 4.99999H10.8334V3.84166C11.0876 3.61332 11.2501 3.28499 11.2501 2.91666C11.2501 2.58514 11.1184 2.26719 10.884 2.03277C10.6496 1.79835 10.3316 1.66666 10.0001 1.66666C9.66859 1.66666 9.35065 1.79835 9.11623 2.03277C8.88181 2.26719 8.75011 2.58514 8.75011 2.91666C8.75011 3.28499 8.91261 3.61332 9.16678 3.84166V4.99999H4.16678C3.24761 4.99999 2.50011 5.74749 2.50011 6.66666V9.16416L2.43178 9.16916C2.22176 9.18432 2.02526 9.27842 1.8818 9.43256C1.73833 9.58669 1.65853 9.78942 1.65845 9.99999V11.6667C1.65845 11.8877 1.74624 12.0996 1.90252 12.2559C2.05881 12.4122 2.27077 12.5 2.49178 12.5H2.50011V16.6667C2.50011 17.5858 3.24761 18.3333 4.16678 18.3333H15.8334C16.7526 18.3333 17.5001 17.5858 17.5001 16.6667V12.5C17.7211 12.5 17.9331 12.4122 18.0894 12.2559C18.2457 12.0996 18.3334 11.8877 18.3334 11.6667V10.0517C18.343 9.92233 18.3225 9.79254 18.2734 9.67249ZM4.16678 16.6667V6.66666H15.8334L15.8343 9.99666L15.8334 9.99999V11.6667L15.8343 11.6708L15.8351 16.6667H4.16678Z" fill="#434343"/>
<path d="M7.08325 11.6667C7.77361 11.6667 8.33325 10.9205 8.33325 10C8.33325 9.07954 7.77361 8.33334 7.08325 8.33334C6.3929 8.33334 5.83325 9.07954 5.83325 10C5.83325 10.9205 6.3929 11.6667 7.08325 11.6667Z" fill="#434343"/>
<path d="M12.9167 11.6667C13.6071 11.6667 14.1667 10.9205 14.1667 10C14.1667 9.07954 13.6071 8.33334 12.9167 8.33334C12.2264 8.33334 11.6667 9.07954 11.6667 10C11.6667 10.9205 12.2264 11.6667 12.9167 11.6667Z" fill="#434343"/>
<path d="M6.66675 13.3333H13.3334V15H6.66675V13.3333Z" fill="#434343"/>
</svg>
