<svg width="20" height="20" viewBox="0 0 20 20" fill="none" xmlns="http://www.w3.org/2000/svg">
<path d="M1.66675 5.00002C1.66675 3.42867 1.66675 2.643 2.15491 2.15485C2.64306 1.66669 3.42873 1.66669 5.00008 1.66669C6.57143 1.66669 7.35711 1.66669 7.84526 2.15485C8.33341 2.643 8.33341 3.42867 8.33341 5.00002V6.66669C8.33341 8.23804 8.33341 9.02369 7.84526 9.51185C7.35711 10 6.57143 10 5.00008 10C3.42873 10 2.64306 10 2.15491 9.51185C1.66675 9.02369 1.66675 8.23804 1.66675 6.66669V5.00002Z" stroke="#434343" stroke-width="1.5"/>
<path d="M1.66675 15.8333C1.66675 15.0567 1.66675 14.6685 1.79361 14.3621C1.96277 13.9538 2.28723 13.6293 2.69561 13.4601C3.0019 13.3333 3.39018 13.3333 4.16675 13.3333H5.83341C6.60998 13.3333 6.99826 13.3333 7.30456 13.4601C7.71293 13.6293 8.03739 13.9538 8.20655 14.3621C8.33341 14.6685 8.33341 15.0567 8.33341 15.8333C8.33341 16.6099 8.33341 16.9981 8.20655 17.3045C8.03739 17.7128 7.71293 18.0373 7.30456 18.2065C6.99826 18.3333 6.60998 18.3333 5.83341 18.3333H4.16675C3.39018 18.3333 3.0019 18.3333 2.69561 18.2065C2.28723 18.0373 1.96277 17.7128 1.79361 17.3045C1.66675 16.9981 1.66675 16.6099 1.66675 15.8333Z" stroke="#434343" stroke-width="1.5"/>
<path d="M11.6667 13.3333C11.6667 11.762 11.6667 10.9763 12.1549 10.4882C12.6431 10 13.4287 10 15.0001 10C16.5714 10 17.3571 10 17.8452 10.4882C18.3334 10.9763 18.3334 11.762 18.3334 13.3333V15C18.3334 16.5713 18.3334 17.357 17.8452 17.8452C17.3571 18.3333 16.5714 18.3333 15.0001 18.3333C13.4287 18.3333 12.6431 18.3333 12.1549 17.8452C11.6667 17.357 11.6667 16.5713 11.6667 15V13.3333Z" stroke="#434343" stroke-width="1.5"/>
<path d="M11.6667 4.16669C11.6667 3.39012 11.6667 3.00184 11.7936 2.69555C11.9627 2.28717 12.2872 1.96271 12.6956 1.79355C13.0019 1.66669 13.3902 1.66669 14.1667 1.66669H15.8334C16.61 1.66669 16.9982 1.66669 17.3046 1.79355C17.7129 1.96271 18.0374 2.28717 18.2066 2.69555C18.3334 3.00184 18.3334 3.39012 18.3334 4.16669C18.3334 4.94325 18.3334 5.33154 18.2066 5.63783C18.0374 6.0462 17.7129 6.37066 17.3046 6.53982C16.9982 6.66669 16.61 6.66669 15.8334 6.66669H14.1667C13.3902 6.66669 13.0019 6.66669 12.6956 6.53982C12.2872 6.37066 11.9627 6.0462 11.7936 5.63783C11.6667 5.33154 11.6667 4.94325 11.6667 4.16669Z" stroke="#434343" stroke-width="1.5"/>
</svg>
