<svg width="15" height="15" viewBox="0 0 15 15" fill="none" xmlns="http://www.w3.org/2000/svg">
<path fill-rule="evenodd" clip-rule="evenodd" d="M10.025 5.57002H13.3292C13.5975 5.57002 13.8625 5.63669 14.1 5.76335C14.3375 5.89002 14.5433 6.07502 14.6975 6.30085C14.8514 6.52847 14.9498 6.78897 14.9848 7.06148C15.0198 7.33398 14.9905 7.6109 14.8992 7.87002L12.9325 13.8709C12.6925 14.5492 12.5325 15 11.3625 15C9.63583 15 7.79917 14.4359 6.23167 13.9534C5.83833 13.8325 5.46167 13.7167 5.10833 13.6167H5.0125V5.39835C6.39404 4.03516 7.58231 2.48912 8.54417 0.803355C8.70588 0.492105 8.97155 0.247367 9.295 0.111688C9.61548 -0.021946 9.97327 -0.0361396 10.3033 0.0716879C10.6333 0.180021 10.9167 0.402521 11.1033 0.702521C11.2908 1.00252 11.37 1.35919 11.3275 1.71169L10.025 5.57002ZM0.980833 5.83335H3.33333V12.5C3.33333 12.942 3.15774 13.366 2.84518 13.6785C2.53262 13.9911 2.10869 14.1667 1.66667 14.1667C1.22464 14.1667 0.800716 13.9911 0.488155 13.6785C0.175595 13.366 0 12.942 0 12.5V6.81419C0 6.27252 0.44 5.83335 0.980833 5.83335Z" fill="#3F6DE4"/>
</svg>
