<svg width="20" height="20" viewBox="0 0 20 20" fill="none" xmlns="http://www.w3.org/2000/svg">
<path d="M14.1666 5.83335V9.16669C14.1666 11.4679 12.3011 13.3334 9.99992 13.3334C7.69874 13.3334 5.83325 11.4679 5.83325 9.16669V5.83335C5.83325 3.53217 7.69874 1.66669 9.99992 1.66669C12.3011 1.66669 14.1666 3.53217 14.1666 5.83335Z" stroke="#374527" stroke-width="1.5"/>
<path d="M14.1667 5.83331H11.6667M14.1667 9.16665H11.6667" stroke="#374527" stroke-width="1.5" stroke-linecap="round"/>
<path d="M16.6666 9.16669C16.6666 12.8486 13.6818 15.8334 9.99992 15.8334M9.99992 15.8334C6.31802 15.8334 3.33325 12.8486 3.33325 9.16669M9.99992 15.8334V18.3334M9.99992 18.3334H12.4999M9.99992 18.3334H7.49992" stroke="#374527" stroke-width="1.5" stroke-linecap="round"/>
</svg>
