<svg width="25" height="20" viewBox="0 0 25 20" fill="none" xmlns="http://www.w3.org/2000/svg">
<path fill-rule="evenodd" clip-rule="evenodd" d="M8.02945 3.73917C8.30561 2.6475 9.51162 1.875 10.8924 1.875H14.2726C15.6534 1.875 16.8583 2.6475 17.1355 3.73917C17.1661 3.85938 17.246 3.96781 17.3623 4.04701C17.4786 4.12622 17.6246 4.17159 17.7768 4.17583H17.811C19.2621 4.2275 20.3771 4.37083 21.308 4.86333C21.8944 5.17333 22.3992 5.57167 22.7922 6.0375C23.2814 6.61583 23.4966 7.28083 23.6 8.08417C23.7014 8.87 23.7014 9.85417 23.7014 11.1008V11.1717C23.7014 12.4183 23.7014 13.4033 23.6 14.1883C23.4966 14.9917 23.2814 15.6567 22.7922 16.2358C22.3979 16.7019 21.8936 17.1009 21.308 17.41C20.5808 17.7942 19.7462 17.9642 18.7346 18.045C17.7437 18.125 16.5015 18.125 14.9231 18.125H10.2418C8.66348 18.125 7.42127 18.125 6.4304 18.045C5.41884 17.9642 4.58415 17.795 3.85702 17.41C3.2713 17.1007 2.76695 16.7014 2.37278 16.235C1.88355 15.6567 1.66842 14.9917 1.56499 14.1883C1.46362 13.4033 1.46362 12.4183 1.46362 11.1717V11.1008C1.46362 9.85417 1.46362 8.87 1.56499 8.08417C1.66842 7.28083 1.88355 6.61583 2.37278 6.0375C2.76695 5.5711 3.2713 5.17183 3.85702 4.8625C4.78791 4.37083 5.9029 4.2275 7.35404 4.17667L7.37162 4.17583H7.38817C7.54038 4.17159 7.68639 4.12622 7.80271 4.04701C7.91903 3.96781 7.99889 3.85938 8.02945 3.73917ZM10.8924 3.125C10.2305 3.125 9.67504 3.49417 9.54989 3.98833C9.3482 4.78833 8.46696 5.41833 7.40679 5.42583C6.01253 5.47583 5.26576 5.61333 4.70723 5.90833C4.29235 6.12769 3.93495 6.41054 3.65533 6.74083C3.36986 7.07833 3.19817 7.51083 3.10715 8.21333C3.01613 8.92667 3.01509 9.84667 3.01509 11.1367C3.01509 12.4267 3.01509 13.3458 3.10818 14.0592C3.19817 14.7617 3.36986 15.1942 3.65637 15.5325C3.93356 15.8608 4.2904 16.1442 4.70827 16.365C5.13957 16.5925 5.6919 16.73 6.58451 16.8017C7.4885 16.8742 8.65314 16.875 10.2843 16.875H14.8807C16.5108 16.875 17.6755 16.875 18.5805 16.8017C19.4731 16.73 20.0254 16.5933 20.4567 16.365C20.8746 16.1442 21.2325 15.8608 21.5097 15.5317C21.7951 15.1942 21.9668 14.7617 22.0578 14.0592C22.1489 13.3458 22.1499 12.4258 22.1499 11.1367C22.1499 9.84667 22.1499 8.92667 22.0568 8.21333C21.9668 7.51083 21.7951 7.07833 21.5086 6.74083C21.2293 6.4101 20.8719 6.12693 20.4567 5.9075C19.9003 5.61333 19.1535 5.47583 17.7572 5.42583C16.698 5.4175 15.8168 4.78917 15.6151 3.98833C15.5489 3.74189 15.3792 3.52141 15.1346 3.36412C14.89 3.20683 14.5855 3.12237 14.2726 3.125H10.8924ZM12.5825 8.95833C11.9653 8.95833 11.3733 9.15588 10.9369 9.50751C10.5005 9.85914 10.2553 10.3361 10.2553 10.8333C10.2553 11.3306 10.5005 11.8075 10.9369 12.1592C11.3733 12.5108 11.9653 12.7083 12.5825 12.7083C13.1997 12.7083 13.7916 12.5108 14.2281 12.1592C14.6645 11.8075 14.9097 11.3306 14.9097 10.8333C14.9097 10.3361 14.6645 9.85914 14.2281 9.50751C13.7916 9.15588 13.1997 8.95833 12.5825 8.95833ZM8.70382 10.8333C8.70382 10.0045 9.11246 9.20968 9.83986 8.62362C10.5672 8.03757 11.5538 7.70833 12.5825 7.70833C13.6112 7.70833 14.5977 8.03757 15.3251 8.62362C16.0525 9.20968 16.4612 10.0045 16.4612 10.8333C16.4612 11.6621 16.0525 12.457 15.3251 13.043C14.5977 13.6291 13.6112 13.9583 12.5825 13.9583C11.5538 13.9583 10.5672 13.6291 9.83986 13.043C9.11246 12.457 8.70382 11.6621 8.70382 10.8333ZM18.0126 8.33333C18.0126 8.16757 18.0944 8.0086 18.2398 7.89139C18.3853 7.77418 18.5826 7.70833 18.7884 7.70833H19.8227C20.0284 7.70833 20.2257 7.77418 20.3712 7.89139C20.5167 8.0086 20.5984 8.16757 20.5984 8.33333C20.5984 8.49909 20.5167 8.65806 20.3712 8.77527C20.2257 8.89248 20.0284 8.95833 19.8227 8.95833H18.7884C18.5826 8.95833 18.3853 8.89248 18.2398 8.77527C18.0944 8.65806 18.0126 8.49909 18.0126 8.33333Z" fill="#4B5B38"/>
</svg>
